<svg preserveAspectRatio="none" overflow="visible" style="display: block;" width="30" height="30" viewBox="0 0 30 30" fill="none" xmlns="http://www.w3.org/2000/svg">
<g id="Brand Mark / Shield" clip-path="url(#clip0_0_69)">
<path id="Vector" d="M22.5 0H7.5C3.35786 0 0 3.35786 0 7.5V22.5C0 26.6421 3.35786 30 7.5 30H22.5C26.6421 30 30 26.6421 30 22.5V7.5C30 3.35786 26.6421 0 22.5 0Z" fill="#9A4A22"/>
<path id="Vector_2" d="M15 7.03125L21.5625 9.84375V14.25C21.5625 18.75 18.8437 22.125 15 23.4375C11.1563 22.125 8.4375 18.75 8.4375 14.25V9.84375L15 7.03125Z" stroke="#FFFDF8" stroke-width="2" stroke-linejoin="round"/>
<path id="Vector_3" d="M12 15.0938L14.1563 17.1562L18.4688 12.75" stroke="#FFFDF8" stroke-width="2" stroke-linecap="round" stroke-linejoin="round"/>
</g>
<defs>
<clipPath id="clip0_0_69">
<rect width="30" height="30" fill="white"/>
</clipPath>
</defs>
</svg>
